/vscmnt/brussel_pixiu_data/_data_brussel/112/vsc11236/PredSimResults/SUBJ11mtu3D/SUBJ11mtu3D_12829363.mot
version=1
nRows=6
nColumns=50
inDegrees=yes
endheader
                time	         pelvis_tilt	         pelvis_list	     pelvis_rotation	           pelvis_tx	           pelvis_ty	           pelvis_tz	       hip_flexion_r	     hip_adduction_r	      hip_rotation_r	        knee_angle_r	       ankle_angle_r	         mtp_angle_r	       hip_flexion_l	     hip_adduction_l	      hip_rotation_l	        knee_angle_l	       ankle_angle_l	         mtp_angle_l	    lumbar_extension	      lumbar_bending	     lumbar_rotation	 ercspn_r/activation	 intobl_r/activation	 extobl_r/activation	    abd_r/activation	    add_r/activation	hamstrings_r/activation	bifemsh_r/activation	glut_max_r/activation	iliopsoas_r/activation	rect_fem_r/activation	  vasti_r/activation	gastroc_r/activation	 soleus_r/activation	tib_ant_r/activation	 ercspn_l/activation	 intobl_l/activation	 extobl_l/activation	    abd_l/activation	    add_l/activation	hamstrings_l/activation	bifemsh_l/activation	glut_max_l/activation	iliopsoas_l/activation	rect_fem_l/activation	  vasti_l/activation	gastroc_l/activation	 soleus_l/activation	tib_ant_l/activation	
          2.07842479	         -6.17621391	          4.64578526	         -7.92847040	          2.28626727	          0.93686462	          0.01610059	        -13.03632324	         -5.37069031	          3.08830737	         -9.21212132	         11.26458806	         30.17349123	         31.87894597	          1.13333834	         -4.08393845	         -5.09761778	          5.20952152	          0.23430033	         -4.32877414	         -3.47712637	          2.67873558	          0.06502264	          0.00999999	          0.01000000	          0.03921967	          0.01997173	          0.01831694	          0.10598087	          0.03478666	          0.40703735	          0.01000005	          0.01666274	          0.29268448	          0.23894663	          0.00999999	          0.08124939	          0.11444837	          0.02150071	          0.01463082	          0.11676177	          0.03798380	          0.22149932	          0.05648342	          0.07263474	          0.01000002	          0.00999999	          0.02017259	          0.00999999	          0.29248209	
          2.09228095	         -6.27896986	          4.52160445	         -7.90323668	          2.30515741	          0.93506334	          0.01532765	        -13.03409990	         -5.31412404	          2.67960828	        -11.07837614	         10.48646689	         32.36849201	         31.61997603	          1.20498286	         -4.13277661	         -6.39252956	          4.80316948	          0.18929454	         -4.00255611	         -3.78660441	          2.89835805	          0.08144609	          0.00999999	          0.01000000	          0.03186166	          0.01881649	          0.01488052	          0.08609779	          0.02826033	          0.38420721	          0.01059500	          0.02295840	          0.24006584	          0.20799777	          0.00999999	          0.06622087	          0.10256491	          0.01746696	          0.04943155	          0.09485608	          0.05156608	          0.17994381	          0.07900098	          0.05900773	          0.01000000	          0.00999999	          0.01638801	          0.01230936	          0.32404119	
          2.10613712	         -6.35845773	          4.39645480	         -7.82832932	          2.32417781	          0.93374925	          0.01444648	        -12.81656799	         -5.25273091	          2.24953149	        -13.35049504	          9.53203306	         34.55383707	         31.23742428	          1.27693916	         -4.19158660	         -7.50159273	          4.18972455	          0.18209114	         -3.69086818	         -4.10383835	          3.08897540	          0.11462969	          0.00999999	          0.01000000	          0.02588409	          0.01985070	          0.01907720	          0.06994497	          0.02295840	          0.36302001	          0.01230953	          0.01865117	          0.19502706	          0.16897528	          0.00999999	          0.07713550	          0.08332269	          0.01418998	          0.11254618	          0.11604095	          0.04720450	          0.14618453	          0.10454183	          0.04793728	          0.01000000	          0.00999999	          0.01331346	          0.01000000	          0.36724879	
          2.11999328	         -6.41378010	          4.26930954	         -7.70773444	          2.34302307	          0.93312956	          0.01347280	        -12.27970205	         -5.18322626	          1.80436442	        -16.16806685	          8.39334972	         36.60620494	         30.84337237	          1.35781865	         -4.25341110	         -8.59966872	          3.55164445	          0.13893838	         -3.42120382	         -4.42821473	          3.24671061	          0.14603844	          0.00999999	          0.01000000	          0.02102797	          0.04634189	          0.01549817	          0.05682259	          0.01865117	          0.33425206	          0.01000014	          0.01515202	          0.15843801	          0.13727381	          0.00999999	          0.08254680	          0.06769051	          0.01152780	          0.14544267	          0.14179664	          0.04452934	          0.11875883	          0.12154279	          0.03894376	          0.01000000	          0.04341503	          0.01081572	          0.01000000	          0.40085065	
          2.13384945	         -6.44399692	          4.13379893	         -7.54364259	          2.36157045	          0.93328469	          0.01243894	        -11.37595557	         -5.10138690	          1.34007776	        -19.58342888	          7.06727835	         38.30390922	         30.41609915	          1.44258781	         -4.30852264	         -9.70262376	          3.14957055	          0.10135724	         -3.19804399	         -4.75255264	          3.36756521	          0.15417509	          0.00999999	          0.01000000	          0.01708291	          0.06042672	          0.01865115	          0.04616210	          0.01515202	          0.28949617	          0.00999999	          0.01230935	          0.12871343	          0.11151985	          0.00999999	          0.07960007	          0.05499109	          0.00999999	          0.15315544	          0.12695135	          0.04617104	          0.09647847	          0.11796673	          0.03163752	          0.01000000	          0.08488484	          0.01000000	          0.01000000	          0.41657319	
          2.14770561	         -6.45089039	          3.97799286	         -7.33865924	          2.37974745	          0.93422051	          0.01137988	        -10.11099874	         -5.00436092	          0.84622432	        -23.55948975	          5.62667357	         39.22498236	         29.90613949	          1.52030143	         -4.33920237	        -10.70613426	          2.93559711	          0.07268925	         -3.02373765	         -5.06408810	          3.44987103	          0.16302642	          0.00999999	          0.01000000	          0.01387799	          0.07000512	          0.01515201	          0.03750166	          0.01230935	          0.24055186	          0.00999999	          0.00999999	          0.10456549	          0.09059760	          0.00999999	          0.06750855	          0.04467420	          0.00999999	          0.14870453	          0.10313399	          0.04460594	          0.07837814	          0.11642583	          0.02570200	          0.01000000	          0.13036134	          0.01000002	          0.01000001	          0.41283258	
